<svg width="141" height="27" viewBox="0 0 141 27" fill="none" xmlns="http://www.w3.org/2000/svg">
<path d="M13.6937 1.4H18.2297V21H13.6937V1.4ZM4.78969 21H0.253688V1.4H4.78969V21ZM14.0297 12.964H4.45369V9.128H14.0297V12.964ZM31.035 21.224C29.3176 21.224 27.8056 20.888 26.499 20.216C25.211 19.544 24.2123 18.6293 23.503 17.472C22.7936 16.296 22.439 14.9613 22.439 13.468C22.439 11.956 22.7843 10.6213 23.475 9.464C24.1843 8.288 25.1456 7.37333 26.359 6.72C27.5723 6.048 28.9443 5.712 30.475 5.712C31.9496 5.712 33.275 6.02933 34.451 6.664C35.6456 7.28 36.5883 8.176 37.279 9.352C37.9696 10.5093 38.315 11.9 38.315 13.524C38.315 13.692 38.3056 13.888 38.287 14.112C38.2683 14.3173 38.2496 14.5133 38.231 14.7H25.995V12.152H35.935L34.255 12.908C34.255 12.124 34.0963 11.4427 33.779 10.864C33.4616 10.2853 33.023 9.83733 32.463 9.52C31.903 9.184 31.2496 9.016 30.503 9.016C29.7563 9.016 29.0936 9.184 28.515 9.52C27.955 9.83733 27.5163 10.2947 27.199 10.892C26.8816 11.4707 26.723 12.1613 26.723 12.964V13.636C26.723 14.4573 26.9003 15.1853 27.255 15.82C27.6283 16.436 28.1416 16.912 28.795 17.248C29.467 17.5653 30.251 17.724 31.147 17.724C31.9496 17.724 32.6496 17.6027 33.247 17.36C33.863 17.1173 34.423 16.7533 34.927 16.268L37.251 18.788C36.5603 19.572 35.6923 20.1787 34.647 20.608C33.6016 21.0187 32.3976 21.224 31.035 21.224ZM43.8536 26.656C43.0696 26.656 42.2949 26.5347 41.5296 26.292C40.7643 26.0493 40.1389 25.7133 39.6536 25.284L41.2496 22.176C41.5856 22.4747 41.9683 22.708 42.3976 22.876C42.8456 23.044 43.2843 23.128 43.7136 23.128C44.3296 23.128 44.8149 22.9787 45.1696 22.68C45.5429 22.4 45.8789 21.924 46.1776 21.252L46.9616 19.404L47.2976 18.928L52.7016 5.936H56.9016L50.0976 21.924C49.6123 23.1373 49.0523 24.0893 48.4176 24.78C47.8016 25.4707 47.1109 25.956 46.3456 26.236C45.5989 26.516 44.7683 26.656 43.8536 26.656ZM46.4296 21.588L39.7096 5.936H44.2176L49.4256 18.536L46.4296 21.588ZM64.5332 21.224C63.2452 21.224 62.0039 21.0747 60.8092 20.776C59.6332 20.4587 58.6999 20.0667 58.0092 19.6L59.4652 16.464C60.1559 16.8933 60.9679 17.248 61.9012 17.528C62.8532 17.7893 63.7866 17.92 64.7012 17.92C65.7092 17.92 66.4186 17.7987 66.8292 17.556C67.2586 17.3133 67.4732 16.9773 67.4732 16.548C67.4732 16.1933 67.3052 15.932 66.9692 15.764C66.6519 15.5773 66.2226 15.4373 65.6812 15.344C65.1399 15.2507 64.5426 15.1573 63.8892 15.064C63.2546 14.9707 62.6106 14.8493 61.9572 14.7C61.3039 14.532 60.7066 14.2893 60.1652 13.972C59.6239 13.6547 59.1852 13.2253 58.8492 12.684C58.5319 12.1427 58.3732 11.4427 58.3732 10.584C58.3732 9.632 58.6439 8.792 59.1852 8.064C59.7452 7.336 60.5479 6.76667 61.5932 6.356C62.6386 5.92667 63.8892 5.712 65.3452 5.712C66.3719 5.712 67.4172 5.824 68.4812 6.048C69.5452 6.272 70.4319 6.59867 71.1412 7.028L69.6852 10.136C68.9572 9.70667 68.2199 9.41733 67.4732 9.268C66.7452 9.1 66.0359 9.016 65.3452 9.016C64.3746 9.016 63.6652 9.14667 63.2172 9.408C62.7692 9.66933 62.5452 10.0053 62.5452 10.416C62.5452 10.7893 62.7039 11.0693 63.0212 11.256C63.3572 11.4427 63.7959 11.592 64.3372 11.704C64.8786 11.816 65.4666 11.9187 66.1012 12.012C66.7546 12.0867 67.4079 12.208 68.0612 12.376C68.7146 12.544 69.3026 12.7867 69.8252 13.104C70.3666 13.4027 70.8052 13.8227 71.1412 14.364C71.4772 14.8867 71.6452 15.5773 71.6452 16.436C71.6452 17.3693 71.3652 18.2 70.8052 18.928C70.2452 19.6373 69.4332 20.1973 68.3692 20.608C67.3239 21.0187 66.0452 21.224 64.5332 21.224ZM81.5002 21.224C79.7269 21.224 78.3456 20.776 77.3562 19.88C76.3669 18.9653 75.8722 17.612 75.8722 15.82V2.604H80.2402V15.764C80.2402 16.3987 80.4082 16.8933 80.7442 17.248C81.0802 17.584 81.5376 17.752 82.1162 17.752C82.8069 17.752 83.3949 17.5653 83.8802 17.192L85.0562 20.272C84.6082 20.5893 84.0669 20.832 83.4322 21C82.8162 21.1493 82.1722 21.224 81.5002 21.224ZM73.5482 9.632V6.272H83.9922V9.632H73.5482ZM97.7482 21V18.06L97.4682 17.416V12.152C97.4682 11.2187 97.1789 10.4907 96.6002 9.968C96.0402 9.44533 95.1722 9.184 93.9962 9.184C93.1935 9.184 92.4002 9.31467 91.6162 9.576C90.8509 9.81867 90.1975 10.1547 89.6562 10.584L88.0882 7.532C88.9095 6.95333 89.8989 6.50533 91.0562 6.188C92.2135 5.87067 93.3895 5.712 94.5842 5.712C96.8802 5.712 98.6629 6.25333 99.9322 7.336C101.202 8.41867 101.836 10.108 101.836 12.404V21H97.7482ZM93.1562 21.224C91.9802 21.224 90.9722 21.028 90.1322 20.636C89.2922 20.2253 88.6482 19.6747 88.2002 18.984C87.7522 18.2933 87.5282 17.5187 87.5282 16.66C87.5282 15.764 87.7429 14.98 88.1722 14.308C88.6202 13.636 89.3202 13.1133 90.2722 12.74C91.2242 12.348 92.4655 12.152 93.9962 12.152H98.0002V14.7H94.4722C93.4455 14.7 92.7362 14.868 92.3442 15.204C91.9709 15.54 91.7842 15.96 91.7842 16.464C91.7842 17.024 91.9989 17.472 92.4282 17.808C92.8762 18.1253 93.4829 18.284 94.2482 18.284C94.9762 18.284 95.6295 18.116 96.2082 17.78C96.7869 17.4253 97.2069 16.912 97.4682 16.24L98.1402 18.256C97.8229 19.2267 97.2442 19.964 96.4042 20.468C95.5642 20.972 94.4815 21.224 93.1562 21.224ZM114.179 21.224C112.555 21.224 111.108 20.8973 109.839 20.244C108.569 19.572 107.571 18.648 106.843 17.472C106.133 16.296 105.779 14.9613 105.779 13.468C105.779 11.956 106.133 10.6213 106.843 9.464C107.571 8.288 108.569 7.37333 109.839 6.72C111.108 6.048 112.555 5.712 114.179 5.712C115.765 5.712 117.147 6.048 118.323 6.72C119.499 7.37333 120.367 8.316 120.927 9.548L117.539 11.368C117.147 10.6587 116.652 10.136 116.055 9.8C115.476 9.464 114.841 9.296 114.151 9.296C113.404 9.296 112.732 9.464 112.135 9.8C111.537 10.136 111.061 10.612 110.707 11.228C110.371 11.844 110.203 12.5907 110.203 13.468C110.203 14.3453 110.371 15.092 110.707 15.708C111.061 16.324 111.537 16.8 112.135 17.136C112.732 17.472 113.404 17.64 114.151 17.64C114.841 17.64 115.476 17.4813 116.055 17.164C116.652 16.828 117.147 16.296 117.539 15.568L120.927 17.416C120.367 18.6293 119.499 19.572 118.323 20.244C117.147 20.8973 115.765 21.224 114.179 21.224ZM127.972 17.92L128.084 12.6L135.112 5.936H140.32L133.572 12.796L131.304 14.644L127.972 17.92ZM124.36 21V0.223999H128.728V21H124.36ZM135.588 21L130.492 14.672L133.236 11.284L140.88 21H135.588Z" fill="#415082"/>
</svg>
