<svg width="201" height="87" viewBox="0 0 201 87" fill="none" xmlns="http://www.w3.org/2000/svg">
<rect y="0.791992" width="201" height="86" rx="17" fill="white"/>
<path fill-rule="evenodd" clip-rule="evenodd" d="M120.422 49.9147C118.445 49.9147 116.845 48.3188 116.845 46.3501C116.845 45.4048 117.222 44.4983 117.892 43.8299C118.563 43.1615 119.473 42.786 120.422 42.786C121.37 42.786 122.28 43.1615 122.951 43.8299C123.622 44.4983 123.998 45.4048 123.998 46.3501C123.999 46.8182 123.906 47.2817 123.727 47.7141C123.547 48.1466 123.283 48.5396 122.951 48.8706C122.619 49.2016 122.225 49.4642 121.791 49.6434C121.357 49.8225 120.892 49.9147 120.422 49.9147ZM120.448 53.2456C124.255 53.2456 127.341 50.1703 127.341 46.376C127.341 42.5827 124.255 39.5059 120.448 39.5059C116.64 39.5059 113.553 42.5822 113.553 46.376C113.553 50.1708 116.64 53.2456 120.448 53.2456ZM72.9014 54.5431V39.2079H68L69.2126 35.7419H80.5961L81.3342 39.2079H76.8543V54.5431H72.9014Z" fill="black"/>
<path fill-rule="evenodd" clip-rule="evenodd" d="M84.2291 49.8486C83.2858 49.8486 82.3812 49.4738 81.7142 48.8068C81.0472 48.1398 80.6724 47.2352 80.6724 46.2919C80.6724 45.3486 81.0472 44.4439 81.7142 43.7769C82.3812 43.1099 83.2858 42.7352 84.2291 42.7352C85.1724 42.7352 86.0771 43.1099 86.7441 43.7769C87.4111 44.4439 87.7858 45.3486 87.7858 46.2919C87.7858 47.2352 87.4111 48.1398 86.7441 48.8068C86.0771 49.4738 85.1724 49.8486 84.2291 49.8486ZM84.255 53.1721C88.0409 53.1721 91.1098 50.1036 91.1098 46.3177C91.1098 42.5329 88.0414 39.4629 84.255 39.4629C80.4696 39.4629 77.4006 42.5324 77.4006 46.3177C77.4011 50.1041 80.4696 53.1721 84.255 53.1721Z" fill="black"/>
<path fill-rule="evenodd" clip-rule="evenodd" d="M94.6852 37.7002L96.7905 40.1663C96.7905 40.1663 95.2639 41.4785 94.8435 42.16C94.4225 42.8425 94.2642 43.9964 95.3169 44.9408C96.3695 45.8856 97.949 47.0913 97.949 48.4563C97.949 49.3478 97.1066 50.5545 96.5278 51.237C95.9486 51.9185 93.3699 54.5429 93.3699 54.5429L90.8431 52.2864C90.8431 52.2864 92.4221 50.8696 93.0013 50.2932C93.5801 49.7157 94.4744 48.6131 93.7379 47.7738C93.0013 46.9345 91.5272 45.6233 91.0538 45.2031C90.5804 44.783 90.5275 43.6291 91.4218 41.7409C92.3167 39.8517 93.4747 38.5923 94.6852 37.7002ZM130.737 37.7002L132.842 40.1663C132.842 40.1663 131.315 41.4785 130.895 42.16C130.474 42.8425 130.317 43.9964 131.368 44.9408C132.42 45.8856 134 47.0913 134 48.4563C134 49.3478 133.158 50.5545 132.579 51.237C131.999 51.9185 129.421 54.5429 129.421 54.5429L126.895 52.2864C126.895 52.2864 128.472 50.8696 129.053 50.2932C129.631 49.7157 130.525 48.6131 129.789 47.7738C129.053 46.9345 127.579 45.6233 127.104 45.2031C126.631 44.783 126.578 43.6291 127.473 41.7409C128.369 39.8517 129.526 38.5923 130.737 37.7002Z" fill="black"/>
<path fill-rule="evenodd" clip-rule="evenodd" d="M96.9851 42.4215V39.6431H98.7763V37.2313L102.095 36.917V39.6431H103.465V42.4215H102.095V53.4301H98.7763V42.4215H96.9851ZM107.731 42.4215V39.6431H109.522V37.2313L112.84 36.917V39.6431H114.21V42.4215H112.84V53.4301H109.522V42.4215H107.731ZM104.098 39.6431H107.151V53.4301H104.098V39.6431ZM117.898 55.1301V53.7499H118.421C118.529 53.7499 118.615 53.7549 118.707 53.8151C118.752 53.8445 118.789 53.8848 118.814 53.9322C118.839 53.9796 118.852 54.0325 118.852 54.0861C118.855 54.1582 118.832 54.2291 118.787 54.2859C118.742 54.3427 118.679 54.3817 118.608 54.396V54.401C118.689 54.4159 118.763 54.4592 118.816 54.5233C118.868 54.5873 118.896 54.6679 118.895 54.7506C118.897 54.8062 118.886 54.8616 118.863 54.9122C118.84 54.9629 118.805 55.0074 118.762 55.0421C118.656 55.1247 118.547 55.1306 118.419 55.1306L117.898 55.1301ZM118.071 54.9834H118.411C118.487 54.9834 118.573 54.9755 118.634 54.9272C118.662 54.9054 118.684 54.8774 118.699 54.8453C118.714 54.8132 118.722 54.7781 118.721 54.7427C118.721 54.7014 118.712 54.6606 118.695 54.6232C118.677 54.5858 118.651 54.5529 118.619 54.5268C118.553 54.4746 118.466 54.4746 118.387 54.4746H118.071V54.9834ZM118.071 54.3413H118.34C118.427 54.3413 118.522 54.3433 118.594 54.2891C118.621 54.2676 118.643 54.2402 118.658 54.2089C118.673 54.1776 118.681 54.1432 118.681 54.1085C118.683 54.0714 118.674 54.0345 118.656 54.0022C118.638 53.9698 118.61 53.9434 118.577 53.926C118.517 53.8912 118.453 53.8912 118.385 53.8912H118.071V54.3413ZM119.325 54.5323V55.1296H119.151V53.7494H119.67C119.785 53.7494 119.894 53.7638 119.987 53.835C120.033 53.8706 120.07 53.9163 120.095 53.9684C120.121 54.0206 120.134 54.0779 120.134 54.1359C120.134 54.299 120.038 54.4458 119.875 54.4905L120.149 55.1296H119.966L119.71 54.5323H119.325ZM119.325 54.3915H119.651C119.745 54.3915 119.822 54.3856 119.889 54.3159C119.912 54.2918 119.931 54.2634 119.943 54.2322C119.955 54.2011 119.961 54.1678 119.961 54.1344C119.962 54.0969 119.954 54.0596 119.938 54.0261C119.921 53.9926 119.895 53.9639 119.864 53.9429C119.803 53.9011 119.745 53.8991 119.671 53.8991H119.325L119.325 54.3915ZM120.532 54.7278L120.409 55.1301H120.264L120.713 53.7499H120.913L121.363 55.1301H121.186L121.046 54.7278H120.532ZM120.582 54.5965H121.008L120.795 53.9349L120.582 54.5965ZM122.391 55.1301L121.686 53.9275V55.1301H121.54V53.7494H121.758L122.416 54.8745V53.7494H122.561V55.1301H122.391ZM122.881 55.1301V53.7499H123.319C123.518 53.7499 123.666 53.7907 123.796 53.9454C123.915 54.0842 123.964 54.2572 123.964 54.4368C123.964 54.6059 123.919 54.773 123.821 54.9108C123.709 55.066 123.566 55.1301 123.376 55.1301H122.881ZM123.054 54.9834H123.31C123.469 54.9834 123.597 54.9476 123.687 54.8083C123.757 54.7034 123.788 54.5606 123.788 54.4363C123.788 54.2955 123.753 54.1488 123.662 54.0349C123.567 53.9165 123.455 53.8951 123.31 53.8951H123.054V54.9834ZM133.026 38.4072C133.375 38.4072 133.657 38.1396 133.657 37.7959C133.657 37.4621 133.376 37.193 133.026 37.193C132.674 37.193 132.392 37.4626 132.392 37.7959C132.393 38.1396 132.674 38.4072 133.026 38.4072ZM133.026 38.5539C132.596 38.5539 132.244 38.2162 132.244 37.7954C132.244 37.3825 132.596 37.0453 133.026 37.0453C133.456 37.0453 133.804 37.383 133.804 37.7954C133.804 38.2167 133.457 38.5539 133.026 38.5539ZM132.866 37.8317V38.2211H132.736V37.3766H133.116C133.19 37.3766 133.263 37.381 133.33 37.4174C133.394 37.4537 133.426 37.5288 133.426 37.5994C133.426 37.766 133.306 37.8277 133.151 37.8322L133.416 38.2216H133.267L133.018 37.8322L132.866 37.8317ZM132.866 37.7267H133.007C133.129 37.7267 133.297 37.7481 133.297 37.5964C133.297 37.4875 133.201 37.4726 133.091 37.4726H132.866V37.7267Z" fill="black"/>
<path fill-rule="evenodd" clip-rule="evenodd" d="M102.665 36.0634C102.665 35.2508 102.975 34.4715 103.526 33.897C104.077 33.3225 104.825 32.9999 105.604 33C105.99 33.0001 106.372 33.0794 106.728 33.2334C107.084 33.3873 107.408 33.613 107.681 33.8975C107.953 34.182 108.169 34.5197 108.317 34.8913C108.464 35.2629 108.54 35.6612 108.54 36.0634C108.526 36.8662 108.21 37.6311 107.661 38.1936C107.112 38.7561 106.372 39.0712 105.602 39.0712C104.833 39.0712 104.093 38.7561 103.544 38.1936C102.995 37.6311 102.679 36.8662 102.665 36.0634Z" fill="#CA4043"/>
</svg>
